<svg width="32" height="32" viewBox="0 0 32 32" fill="none" xmlns="http://www.w3.org/2000/svg">
<g clip-path="url(#clip0_1177_2760)">
<rect width="32" height="32" rx="16" fill="#3535F3"/>
<path d="M11.3025 9.65014H10.7692C9.75707 9.65014 9.20418 10.2208 9.20418 11.3624V16.8682C9.20418 18.2857 8.72536 18.7832 7.6021 18.7832C6.71855 18.7832 6.00062 18.3962 5.42966 17.6967C5.37425 17.6232 4.21484 18.1752 4.21484 19.5381C4.21484 21.011 5.59499 21.9136 8.15559 21.9136C11.2667 21.9136 12.9064 20.3482 12.9064 16.9236V11.3624C12.9046 10.2223 12.3523 9.65014 11.3025 9.65014ZM23.7026 12.3384C20.6824 12.3384 18.6756 14.2534 18.6756 17.1088C18.6756 20.0368 20.6083 21.9153 23.6468 21.9153C26.6661 21.9153 28.6543 20.0368 28.6543 17.1278C28.656 14.2534 26.6854 12.3384 23.7026 12.3384ZM23.6655 19.2063C22.4865 19.2063 21.6768 18.3411 21.6768 17.1073C21.6768 15.8925 22.5064 15.0267 23.6655 15.0267C24.8246 15.0267 25.654 15.8925 25.654 17.126C25.6543 18.3224 24.8074 19.2063 23.6658 19.2063H23.6655ZM16.1239 12.4303H15.755C14.8534 12.4303 14.1722 12.8534 14.1722 14.1429V20.035C14.1722 21.3426 14.8353 21.7479 15.7923 21.7479H16.1609C17.0631 21.7479 17.7073 21.3055 17.7073 20.035V14.1429C17.7073 12.8173 17.0818 12.4303 16.1239 12.4303ZM15.9215 8.15918C14.7796 8.15918 14.0617 8.80392 14.0617 9.81666C14.0617 10.8472 14.7985 11.4916 15.9766 11.4916C17.1183 11.4916 17.8365 10.8472 17.8365 9.81666C17.8365 8.78614 17.0999 8.15918 15.9215 8.15918Z" fill="white"/>
</g>
<defs>
<clipPath id="clip0_1177_2760">
<rect width="32" height="32" fill="white"/>
</clipPath>
</defs>
</svg>
