<svg width="81" height="80" viewBox="0 0 81 80" fill="none" xmlns="http://www.w3.org/2000/svg">
<path d="M68.7867 68.2809C84.4071 52.6608 84.4071 27.3353 68.7867 11.7152C53.1666 -3.90505 27.8413 -3.90505 12.221 11.7152C-3.39919 27.3353 -3.39919 52.6608 12.221 68.2809C27.8413 83.9011 53.1666 83.9011 68.7867 68.2809Z" fill="#E18C42"/>
<path d="M66.4788 65.9731C80.8244 51.6275 80.8244 28.3686 66.4788 14.0231C52.1332 -0.322545 28.8743 -0.322545 14.5287 14.0231C0.183131 28.3686 0.183131 51.6275 14.5287 65.9731C28.8743 80.3187 52.1332 80.3187 66.4788 65.9731Z" fill="url(#paint0_linear_1725_873)"/>
<g opacity="0.4">
<path d="M40.3421 74.7506C39.8568 74.7506 39.3697 74.7399 38.8809 74.7205C29.7613 74.3399 21.3334 70.4308 15.1522 63.713C8.97124 56.995 5.7785 48.2719 6.15715 39.1524C6.5358 30.031 10.4449 21.6047 17.1647 15.4237C23.8842 9.24093 32.6091 6.04997 41.7287 6.42684C50.8483 6.80726 59.2764 10.7164 65.4555 17.4343C71.6367 24.154 74.8293 32.8753 74.4506 41.9967C74.0721 51.1181 70.1629 59.5443 63.4432 65.7253C57.0863 71.5756 48.9302 74.7506 40.3421 74.7506ZM40.2728 7.51301C31.9621 7.51301 24.0746 10.5831 17.9219 16.2433C11.4227 22.2217 7.63974 30.3741 7.27354 39.1968C6.90556 48.0195 9.99519 56.4582 15.9753 62.9575C21.9537 69.455 30.1061 73.2361 38.9307 73.604C47.7445 73.9773 56.1902 70.8823 62.6895 64.9041C69.1887 58.9257 72.9681 50.7731 73.3344 41.9504C73.7023 33.1278 70.6127 24.689 64.6361 18.1899C58.656 11.6906 50.5051 7.90943 41.6807 7.54145C41.2096 7.5219 40.7404 7.51301 40.2728 7.51301Z" fill="url(#paint1_linear_1725_873)"/>
</g>
<path d="M40.5416 74.1757C40.0546 74.1757 39.5693 74.1649 39.0804 74.1453C29.9608 73.765 21.5327 69.8559 15.3517 63.1379C9.17071 56.4201 5.9762 47.697 6.35662 38.5774C6.73527 29.456 10.6444 21.0297 17.364 14.8487C24.0837 8.66588 32.8087 5.47493 41.9282 5.8518C51.0478 6.23222 59.4759 10.1414 65.655 16.8592C71.8362 23.5789 75.0288 32.3003 74.6501 41.4217C74.2716 50.5429 70.3624 58.9692 63.6427 65.1502C57.2858 71.0007 49.1297 74.1757 40.5416 74.1757ZM40.4724 6.93796C32.1616 6.93796 24.2741 10.008 18.1214 15.6682C11.6221 21.6466 7.83922 29.7991 7.47301 38.6219C7.10503 47.4444 10.1929 55.8832 16.173 62.3824C22.1514 68.8798 30.304 72.6609 39.1283 73.0291C47.9422 73.4024 56.3881 70.3074 62.8872 64.3289C69.3865 58.3505 73.1658 50.1981 73.5321 41.3754C73.9 32.5527 70.8103 24.114 64.8338 17.6147C58.8537 11.1155 50.703 7.33439 41.8784 6.96641C41.4073 6.94685 40.9381 6.93621 40.4705 6.93621L40.4724 6.93796Z" fill="url(#paint2_linear_1725_873)"/>
<g opacity="0.3">
<path d="M17.2046 15.1118C23.9243 8.92892 32.6493 5.73795 41.7688 6.11482C50.8884 6.49524 59.3165 10.4044 65.4956 17.1223C71.6768 23.8419 74.8694 32.5634 74.4907 41.6846C74.2561 47.3414 72.6581 52.7278 69.8795 57.4794C72.754 52.6637 74.4091 47.183 74.6491 41.4216C75.0278 32.3002 71.8349 23.5788 65.6539 16.8591C59.4746 10.1413 51.0467 6.23215 41.9271 5.85172C32.8076 5.47485 24.0826 8.66581 17.363 14.8487C14.8101 17.1969 12.6698 19.8707 10.9668 22.7825C12.6432 19.9738 14.7301 17.3889 17.2046 15.1118Z" fill="#FFE6A2"/>
<path d="M7.31461 38.8855C6.94663 47.7083 10.0363 56.1469 16.0164 62.6461C21.9948 69.1435 30.1473 72.9246 38.9717 73.2928C47.7856 73.6661 56.2313 70.571 62.7306 64.5926C65.1997 62.3209 67.2726 59.7325 68.9188 56.9149C67.2974 59.6294 65.2816 62.1289 62.8887 64.3295C56.3896 70.3079 47.9437 73.4029 39.1299 73.0296C30.3073 72.6617 22.1531 68.8806 16.1747 62.3831C10.1945 55.8838 7.10485 47.4451 7.47461 38.6224C7.70215 33.1525 9.24697 27.942 11.9331 23.3467C9.15097 28.0077 7.54571 33.3106 7.31461 38.8855Z" fill="#FFE6A2"/>
</g>
<path style="mix-blend-mode:multiply" opacity="0.3" d="M39.1071 75.9408C18.836 75.0964 3.0893 57.9789 3.9337 37.7097C4.03681 35.244 4.38879 32.8477 4.95054 30.5367C4.23058 33.1623 3.76304 35.8983 3.64571 38.7337C2.80131 59.0047 18.5481 76.1202 38.8191 76.9646C56.6227 77.706 71.9855 65.6444 76.0351 48.9643C71.6122 65.1057 56.5409 76.6661 39.1071 75.9408Z" fill="url(#paint3_linear_1725_873)"/>
<path style="mix-blend-mode:multiply" opacity="0.3" d="M39.2634 75.6767C18.9923 74.8323 3.24555 57.715 4.08995 37.4456C4.19306 34.98 4.54504 32.5836 5.10679 30.2726C4.38683 32.8984 3.91929 35.6342 3.80196 38.4696C2.95756 58.7407 18.7044 75.8563 38.9754 76.7007C56.779 77.442 72.1418 65.3804 76.1914 48.7002C71.7684 64.8417 56.6971 76.402 39.2634 75.6767Z" fill="url(#paint4_linear_1725_873)"/>
<path opacity="0.4" d="M41.7069 3.92475C61.9778 4.76915 77.7246 21.8865 76.8802 42.1557C76.6704 47.192 75.4527 51.9473 73.435 56.2404C75.6377 51.7819 76.9869 46.8151 77.2074 41.5265C78.0518 21.2555 62.305 4.13985 42.0339 3.29544C26.801 2.66081 13.3509 11.3999 7.24805 24.3842C13.4877 11.7519 26.7261 3.299 41.7086 3.92297L41.7069 3.92475Z" fill="url(#paint5_linear_1725_873)"/>
<path opacity="0.4" d="M41.6954 0.64053C63.7655 1.5596 80.913 20.197 79.9923 42.2687C79.6491 50.4888 76.8439 58.0226 72.3232 64.1965C77.1124 57.9089 80.1113 50.16 80.465 41.6643C81.384 19.5942 64.2382 0.95696 42.1682 0.0361157C28.3183 -0.541634 15.8246 6.00027 8.20898 16.4051C15.8619 6.35936 28.119 0.0752246 41.6954 0.64053Z" fill="#FFE68B"/>
<path style="mix-blend-mode:multiply" opacity="0.3" d="M39.3869 78.3601C17.3169 77.4411 0.169259 58.8038 1.0901 36.7319C1.24654 32.9579 1.95762 29.3421 3.07934 25.9217C1.61986 29.8025 0.720344 33.9658 0.537241 38.3337C-0.381825 60.4038 16.7639 79.0429 38.834 79.9619C57.1301 80.7244 73.0316 69.0557 78.4713 52.4753C72.5568 68.2006 57.0892 79.0978 39.3869 78.3601Z" fill="url(#paint6_linear_1725_873)"/>
<path d="M59.2671 21.8993L46.9325 14.7699C43.1335 12.5742 38.3968 12.5742 34.5978 14.7699L22.2632 21.8993C18.4641 24.0948 16.0957 28.19 16.0957 32.581V46.8153C16.0957 51.2064 18.4641 55.3016 22.2632 57.4972L34.5978 64.6267C36.4973 65.7368 38.6189 66.2794 40.7652 66.2794C42.9114 66.2794 45.033 65.7368 46.9325 64.6267L59.2671 57.4972C63.0662 55.3016 65.4346 51.2064 65.4346 46.8153V32.581C65.4346 28.19 63.0662 24.0948 59.2671 21.8993ZM60.5006 46.84C60.5006 49.4797 59.0699 51.922 56.8002 53.2541L44.4656 60.3836C42.1713 61.7156 39.359 61.7156 37.0647 60.3836L24.7301 53.2541C22.4604 51.9466 21.0297 49.4797 21.0297 46.84V32.6058C21.0297 29.9662 22.4604 27.5239 24.7301 26.1917L37.0647 19.0622C38.1996 18.3962 39.4823 18.0754 40.7652 18.0754C42.048 18.0754 43.3309 18.3962 44.4656 19.0622L56.8002 26.1917C59.0699 27.4992 60.5006 29.9662 60.5006 32.6058V46.84Z" fill="url(#paint7_linear_1725_873)"/>
<path d="M49.4482 27.7468V39.7116C49.4482 44.4727 45.5751 48.3458 40.814 48.3458C36.0528 48.3458 32.1796 44.4727 32.1796 39.7116C32.1796 38.3546 33.2898 37.2445 34.6465 37.2445C36.0033 37.2445 37.1135 38.3546 37.1135 39.7116C37.1135 41.7591 38.7663 43.412 40.814 43.412C42.8615 43.412 44.5144 41.7591 44.5144 39.7116V25.4032C40.7892 24.4412 36.7927 24.9345 33.3638 26.9081C28.7753 29.5476 25.9629 34.4322 25.9629 39.7362C25.9629 45.04 28.7753 49.9 33.3638 52.5643C37.9523 55.204 43.5769 55.204 48.1653 52.5643C52.754 49.9246 55.5663 45.04 55.5663 39.7362C55.5663 34.975 53.2473 30.5344 49.4482 27.7716V27.7468Z" fill="url(#paint8_linear_1725_873)"/>
<path d="M58.6695 22.4978L46.3347 15.3683C42.5356 13.1728 37.7992 13.1728 34.0001 15.3683L21.6653 22.4978C17.8663 24.6935 15.498 28.7884 15.498 33.1797V47.4138C15.498 51.8051 17.8663 55.9001 21.6653 58.0957L34.0001 65.2252C35.8996 66.3353 38.0212 66.8781 40.1674 66.8781C42.3136 66.8781 44.4352 66.3353 46.3347 65.2252L58.6695 58.0957C62.4685 55.9001 64.8368 51.8051 64.8368 47.4138V33.1797C64.8368 28.7884 62.4685 24.6935 58.6695 22.4978ZM59.9029 47.4386C59.9029 50.0782 58.4721 52.5204 56.2026 53.8526L43.8678 60.9821C41.5736 62.3142 38.7614 62.3142 36.467 60.9821L24.1323 53.8526C21.8627 52.5451 20.4319 50.0782 20.4319 47.4386V33.2043C20.4319 30.5646 21.8627 28.1224 24.1323 26.7902L36.467 19.6609C37.6018 18.9948 38.8847 18.6741 40.1674 18.6741C41.4503 18.6741 42.733 18.9948 43.8678 19.6609L56.2026 26.7902C58.4721 28.0977 59.9029 30.5646 59.9029 33.2043V47.4386Z" fill="#FFEB7A"/>
<path d="M48.8525 28.3455V40.3101C48.8525 45.0714 44.9794 48.9443 40.2181 48.9443C35.4569 48.9443 31.5839 45.0714 31.5839 40.3101C31.5839 38.9533 32.6941 37.8432 34.0508 37.8432C35.4076 37.8432 36.5178 38.9533 36.5178 40.3101C36.5178 42.3576 38.1706 44.0105 40.2181 44.0105C42.2656 44.0105 43.9185 42.3576 43.9185 40.3101V26.0019C40.1935 25.0397 36.197 25.5332 32.7679 27.5066C28.1795 30.1463 25.3672 35.0309 25.3672 40.3347C25.3672 45.6387 28.1795 50.4985 32.7679 53.1628C37.3564 55.8025 42.9811 55.8025 47.5696 53.1628C52.1581 50.5233 54.9704 45.6387 54.9704 40.3347C54.9704 35.5737 52.6516 31.1331 48.8525 28.3701V28.3455Z" fill="#FFEB7A"/>
<path d="M58.9703 22.1986L46.6357 15.0691C42.8364 12.8735 38.1 12.8735 34.3009 15.0691L21.9661 22.1986C18.167 24.394 15.7988 28.4892 15.7988 32.8805V47.1146C15.7988 51.5058 18.167 55.6008 21.9661 57.7965L34.3009 64.9259C36.2004 66.0361 38.322 66.5788 40.4682 66.5788C42.6144 66.5788 44.7361 66.0361 46.6357 64.9259L58.9703 57.7965C62.7693 55.6008 65.1375 51.5058 65.1375 47.1146V32.8805C65.1375 28.4892 62.7693 24.394 58.9703 22.1986ZM60.2037 47.1392C60.2037 49.7789 58.7729 52.2212 56.5033 53.5533L44.1686 60.6828C41.8744 62.015 39.0621 62.015 36.7678 60.6828L24.433 53.5533C22.1635 52.2458 20.7327 49.7789 20.7327 47.1392V32.9051C20.7327 30.2654 22.1635 27.8231 24.433 26.4909L36.7678 19.3615C37.9026 18.6954 39.1855 18.3749 40.4682 18.3749C41.7511 18.3749 43.0338 18.6954 44.1686 19.3615L56.5033 26.4909C58.7729 27.7985 60.2037 30.2654 60.2037 32.9051V47.1392Z" fill="url(#paint9_linear_1725_873)"/>
<path d="M49.1494 28.0462V40.0109C49.1494 44.7721 45.2763 48.6451 40.515 48.6451C35.7539 48.6451 31.8808 44.7721 31.8808 40.0109C31.8808 38.6541 32.9909 37.5439 34.3477 37.5439C35.7045 37.5439 36.8146 38.6541 36.8146 40.0109C36.8146 42.0583 38.4675 43.7112 40.515 43.7112C42.5627 43.7112 44.2154 42.0583 44.2154 40.0109V25.7027C40.4904 24.7405 36.4939 25.2338 33.0648 27.2074C28.4763 29.8471 25.6641 34.7315 25.6641 40.0355C25.6641 45.3395 28.4763 50.1992 33.0648 52.8636C37.6535 55.5033 43.278 55.5033 47.8665 52.8636C52.455 50.2239 55.2673 45.3395 55.2673 40.0355C55.2673 35.2742 52.9485 30.8339 49.1494 28.0709V28.0462Z" fill="url(#paint10_linear_1725_873)"/>
<defs>
<linearGradient id="paint0_linear_1725_873" x1="24.5779" y1="69.9118" x2="61.6196" y2="0.336425" gradientUnits="userSpaceOnUse">
<stop stop-color="#FFB859"/>
<stop offset="0.168652" stop-color="#DB7C48"/>
<stop offset="0.262079" stop-color="#D36E44"/>
<stop offset="0.467137" stop-color="#E08F4A"/>
<stop offset="0.67" stop-color="#FFDA6B"/>
<stop offset="1" stop-color="#FF9421"/>
</linearGradient>
<linearGradient id="paint1_linear_1725_873" x1="38.1628" y1="44.233" x2="62.3714" y2="2.86434" gradientUnits="userSpaceOnUse">
<stop offset="0.26" stop-color="#B0381C"/>
<stop offset="1" stop-color="#FF9421"/>
</linearGradient>
<linearGradient id="paint2_linear_1725_873" x1="38.3623" y1="43.6598" x2="62.5707" y2="2.28932" gradientUnits="userSpaceOnUse">
<stop stop-color="#FFB859"/>
<stop offset="0.23" stop-color="#CC5827"/>
<stop offset="0.67" stop-color="#FFDA6B"/>
<stop offset="1" stop-color="#FF9421"/>
</linearGradient>
<linearGradient id="paint3_linear_1725_873" x1="24.322" y1="71.3401" x2="47.425" y2="27.9448" gradientUnits="userSpaceOnUse">
<stop stop-color="#FFB859"/>
<stop offset="0.23" stop-color="#CC5827"/>
<stop offset="0.67" stop-color="#FFDA6B"/>
<stop offset="1" stop-color="#FF9421"/>
</linearGradient>
<linearGradient id="paint4_linear_1725_873" x1="24.4783" y1="71.076" x2="47.5811" y2="27.6826" gradientUnits="userSpaceOnUse">
<stop stop-color="#FFB859"/>
<stop offset="0.23" stop-color="#CC5827"/>
<stop offset="0.67" stop-color="#FFDA6B"/>
<stop offset="1" stop-color="#FF9421"/>
</linearGradient>
<linearGradient id="paint5_linear_1725_873" x1="40.3238" y1="40.2981" x2="59.7753" y2="3.7612" gradientUnits="userSpaceOnUse">
<stop offset="0.26" stop-color="#B0381C"/>
<stop offset="1" stop-color="#FF9421"/>
</linearGradient>
<linearGradient id="paint6_linear_1725_873" x1="9.01683" y1="78.4579" x2="57.0518" y2="22.6117" gradientUnits="userSpaceOnUse">
<stop stop-color="#FFB859"/>
<stop offset="0.23" stop-color="#CC5827"/>
<stop offset="0.67" stop-color="#FFDA6B"/>
<stop offset="1" stop-color="#FF9421"/>
</linearGradient>
<linearGradient id="paint7_linear_1725_873" x1="30.085" y1="70.2929" x2="56.4882" y2="11.3951" gradientUnits="userSpaceOnUse">
<stop stop-color="#B0381C"/>
<stop offset="0.74" stop-color="#B0381C"/>
</linearGradient>
<linearGradient id="paint8_linear_1725_873" x1="34.3566" y1="56.7802" x2="48.3394" y2="23.1905" gradientUnits="userSpaceOnUse">
<stop stop-color="#B0381C"/>
<stop offset="0.74" stop-color="#B0381C"/>
</linearGradient>
<linearGradient id="paint9_linear_1725_873" x1="29.7882" y1="70.5923" x2="56.1913" y2="11.6944" gradientUnits="userSpaceOnUse">
<stop offset="0.26" stop-color="#B0381C"/>
<stop offset="1" stop-color="#FF9421"/>
</linearGradient>
<linearGradient id="paint10_linear_1725_873" x1="34.0575" y1="57.0795" x2="48.0404" y2="23.4898" gradientUnits="userSpaceOnUse">
<stop offset="0.26" stop-color="#B0381C"/>
<stop offset="1" stop-color="#FF9421"/>
</linearGradient>
</defs>
</svg>
