<svg width="139" height="40" viewBox="0 0 139 40" fill="none" xmlns="http://www.w3.org/2000/svg">
<g clip-path="url(#clip0_1169_5984)">
<path d="M0 20C0 31.0457 8.95431 40 20 40C31.0457 40 40 31.0457 40 20C40 8.95431 31.0457 0 20 0C8.95431 0 0 8.95431 0 20Z" fill="#1E7B74"/>
<path d="M9.15088 13.8747C10.6759 12.2247 14.7384 10.9872 20.2009 10.9872C21.6759 10.9872 23.2134 11.2122 24.3759 11.2372C25.5384 11.2622 26.2009 10.8497 26.2009 10.2372C26.2009 9.04971 23.6009 7.51221 20.0259 7.51221C15.3634 7.51221 11.3009 10.0747 9.15088 13.8622V13.8747Z" fill="white"/>
<path d="M26.5509 20.3994C28.2759 20.6119 29.7759 19.5994 30.0009 18.0494C30.2259 16.4994 29.1384 15.2119 27.6134 14.8244C26.0884 14.4369 22.8009 14.0869 20.0884 14.0994C14.9259 14.1244 10.5384 15.1244 8.6259 16.5369C8.1259 16.9119 7.8134 17.4744 7.6759 18.0869C7.3384 19.6869 7.5259 22.1994 8.0884 23.7494C8.4634 21.5494 13.4259 19.8369 20.0884 19.8994C22.7259 19.9244 24.8134 20.1869 26.5384 20.3994H26.5509Z" fill="white"/>
<path d="M23.6249 28.8882C24.9749 28.8882 26.0749 27.7882 26.0749 26.4382C26.0749 25.2632 25.2874 24.2382 23.9249 23.9882C22.5624 23.7382 21.5499 23.7132 20.0374 23.7257C15.4749 23.7757 11.6874 24.5382 10.4249 25.8757C9.74993 26.5882 9.96243 27.3757 10.3124 27.8382C11.7624 29.7507 13.9499 30.9882 14.8124 31.3632C14.8124 31.3632 13.2124 28.7632 20.0499 28.7632C21.3874 28.7632 22.6749 28.8757 23.6374 28.8757L23.6249 28.8882Z" fill="white"/>
</g>
<path d="M56.736 22.08C56.736 23.4773 56.3947 24.5227 55.712 25.216C55.0293 25.9093 53.9413 26.256 52.448 26.256C51.104 26.256 50.096 25.9147 49.424 25.232C48.7627 24.5387 48.432 23.5627 48.432 22.304V22.208H51.568C51.568 22.7093 51.632 23.0667 51.76 23.28C51.8987 23.4827 52.1227 23.584 52.432 23.584C52.7093 23.584 52.912 23.4773 53.04 23.264C53.1787 23.0507 53.248 22.6987 53.248 22.208V14.944H56.736V22.08ZM61.3846 15.12C61.3846 15.408 61.31 15.6693 61.1606 15.904C61.022 16.128 60.8246 16.3093 60.5686 16.448C60.3126 16.576 60.0246 16.64 59.7046 16.64C59.3846 16.64 59.0966 16.576 58.8406 16.448C58.5846 16.3093 58.382 16.128 58.2326 15.904C58.094 15.6693 58.0246 15.408 58.0246 15.12C58.0246 14.832 58.094 14.576 58.2326 14.352C58.382 14.1173 58.5846 13.936 58.8406 13.808C59.0966 13.6693 59.3846 13.6 59.7046 13.6C60.0246 13.6 60.3126 13.6693 60.5686 13.808C60.8246 13.936 61.022 14.1173 61.1606 14.352C61.31 14.576 61.3846 14.832 61.3846 15.12ZM61.2886 17.696V26H58.1206V17.696H61.2886ZM71.1504 21.84C71.1504 22.704 70.9744 23.4667 70.6224 24.128C70.2704 24.7787 69.7637 25.2907 69.1024 25.664C68.441 26.0267 67.6517 26.208 66.7344 26.208C65.817 26.208 65.0224 26.0267 64.3504 25.664C63.689 25.2907 63.1824 24.7787 62.8304 24.128C62.4784 23.4667 62.3024 22.704 62.3024 21.84C62.3024 20.976 62.4784 20.2187 62.8304 19.568C63.1824 18.9067 63.689 18.3947 64.3504 18.032C65.0224 17.6693 65.817 17.488 66.7344 17.488C67.6517 17.488 68.441 17.6747 69.1024 18.048C69.7637 18.4107 70.2704 18.9227 70.6224 19.584C70.9744 20.2347 71.1504 20.9867 71.1504 21.84ZM66.7344 23.904C67.1504 23.904 67.4597 23.7387 67.6624 23.408C67.8757 23.0773 67.9824 22.5547 67.9824 21.84C67.9824 21.1253 67.8757 20.608 67.6624 20.288C67.449 19.9573 67.1344 19.792 66.7184 19.792C66.313 19.792 66.0037 19.952 65.7904 20.272C65.577 20.592 65.4704 21.1147 65.4704 21.84C65.4704 22.544 65.577 23.0667 65.7904 23.408C66.0037 23.7387 66.3184 23.904 66.7344 23.904ZM77.7126 18C77.702 17.744 77.5686 17.5413 77.3126 17.392C77.0673 17.2427 76.758 17.168 76.3846 17.168C76.0113 17.168 75.7126 17.232 75.4886 17.36C75.2753 17.4773 75.1686 17.648 75.1686 17.872C75.1686 18.064 75.2806 18.2453 75.5046 18.416C75.7393 18.5867 76.1446 18.7413 76.7206 18.88L77.5686 19.088C78.55 19.3333 79.318 19.6107 79.8726 19.92C80.438 20.2293 80.838 20.592 81.0726 21.008C81.318 21.4133 81.4406 21.8933 81.4406 22.448C81.4406 23.2693 81.2273 23.968 80.8006 24.544C80.374 25.1093 79.7713 25.536 78.9926 25.824C78.2246 26.112 77.334 26.256 76.3206 26.256C75.4353 26.256 74.6193 26.1067 73.8726 25.808C73.126 25.5093 72.534 25.0933 72.0966 24.56C71.6593 24.0267 71.4406 23.4133 71.4406 22.72V22.656H74.9446V22.688C74.9446 22.88 75.0033 23.0613 75.1206 23.232C75.238 23.392 75.414 23.5253 75.6486 23.632C75.894 23.728 76.182 23.776 76.5126 23.776C76.9606 23.776 77.3126 23.7013 77.5686 23.552C77.8246 23.4027 77.9526 23.1893 77.9526 22.912C77.9526 22.7307 77.894 22.5813 77.7766 22.464C77.67 22.336 77.4993 22.224 77.2646 22.128C77.0406 22.0213 76.7206 21.9093 76.3046 21.792L74.8166 21.36C73.8246 21.072 73.0833 20.672 72.5926 20.16C72.1126 19.648 71.8726 19.0027 71.8726 18.224C71.8726 17.4667 72.07 16.8213 72.4646 16.288C72.8593 15.7547 73.4033 15.3547 74.0966 15.088C74.79 14.8213 75.5793 14.688 76.4646 14.688C77.9046 14.688 79.0033 14.976 79.7606 15.552C80.5286 16.128 80.9393 16.944 80.9926 18H77.7126ZM90.8694 21.888C90.8694 22.7627 90.7414 23.5253 90.4854 24.176C90.2294 24.816 89.8454 25.3173 89.3334 25.68C88.832 26.032 88.208 26.208 87.4614 26.208C87.0134 26.208 86.5974 26.112 86.2134 25.92C85.84 25.728 85.5254 25.4507 85.2694 25.088H85.2374V28.688H82.0694V17.696H85.1414V18.608H85.1574C85.4347 18.2133 85.76 17.9307 86.1334 17.76C86.5067 17.5787 86.9654 17.488 87.5094 17.488C88.224 17.488 88.832 17.7013 89.3334 18.128C89.8454 18.544 90.2294 19.0933 90.4854 19.776C90.7414 20.448 90.8694 21.152 90.8694 21.888ZM85.1254 21.856C85.1254 22.5387 85.2374 23.0507 85.4614 23.392C85.6854 23.7333 86.0054 23.904 86.4214 23.904C86.8267 23.904 87.1414 23.7333 87.3654 23.392C87.5894 23.04 87.7014 22.528 87.7014 21.856C87.7014 21.184 87.5894 20.672 87.3654 20.32C87.1414 19.968 86.8267 19.792 86.4214 19.792C86.0054 19.792 85.6854 19.9627 85.4614 20.304C85.2374 20.6453 85.1254 21.1627 85.1254 21.856ZM94.9605 18.592H94.9925C95.2912 18.2187 95.6432 17.9413 96.0485 17.76C96.4645 17.5787 96.9552 17.488 97.5205 17.488C98.0432 17.488 98.5125 17.6053 98.9285 17.84C99.3552 18.0747 99.6858 18.4 99.9205 18.816C100.155 19.232 100.272 19.7067 100.272 20.24V26H97.1045V21.408C97.1045 20.928 97.0138 20.576 96.8325 20.352C96.6618 20.128 96.4005 20.016 96.0485 20.016C95.6858 20.016 95.4138 20.128 95.2325 20.352C95.0512 20.576 94.9605 20.928 94.9605 21.408V26H91.7925V14.576H94.9605V18.592ZM110.139 22.56H104.235C104.256 23.0827 104.4 23.4827 104.667 23.76C104.944 24.0373 105.318 24.176 105.787 24.176C106.107 24.176 106.379 24.128 106.603 24.032C106.838 23.936 106.998 23.7867 107.083 23.584H109.963C109.718 24.416 109.216 25.0613 108.459 25.52C107.712 25.9787 106.768 26.208 105.627 26.208C104.774 26.208 104.011 26.0427 103.339 25.712C102.678 25.3707 102.155 24.8747 101.771 24.224C101.398 23.5733 101.211 22.7893 101.211 21.872C101.211 21.072 101.392 20.3413 101.755 19.68C102.128 19.008 102.651 18.4747 103.323 18.08C103.995 17.6853 104.768 17.488 105.643 17.488C107.136 17.488 108.256 17.904 109.003 18.736C109.76 19.568 110.139 20.832 110.139 22.528V22.56ZM107.115 20.912C107.126 20.6453 107.072 20.4107 106.955 20.208C106.848 19.9947 106.688 19.8293 106.475 19.712C106.272 19.584 106.032 19.52 105.755 19.52C105.328 19.52 104.982 19.6373 104.715 19.872C104.459 20.1067 104.299 20.4533 104.235 20.912H107.115ZM117.292 20.336C117.185 20.2933 117.073 20.2613 116.956 20.24C116.838 20.2187 116.684 20.208 116.492 20.208C115.702 20.208 115.121 20.416 114.748 20.832C114.385 21.2373 114.204 21.856 114.204 22.688V26H111.036V17.696H114.076V19.024H114.108C114.31 18.5013 114.62 18.1173 115.036 17.872C115.462 17.616 115.948 17.488 116.492 17.488C116.822 17.488 117.089 17.5253 117.292 17.6V20.336ZM126.007 22.56H120.103C120.124 23.0827 120.268 23.4827 120.535 23.76C120.812 24.0373 121.186 24.176 121.655 24.176C121.975 24.176 122.247 24.128 122.471 24.032C122.706 23.936 122.866 23.7867 122.951 23.584H125.831C125.586 24.416 125.084 25.0613 124.327 25.52C123.58 25.9787 122.636 26.208 121.495 26.208C120.642 26.208 119.879 26.0427 119.207 25.712C118.546 25.3707 118.023 24.8747 117.639 24.224C117.266 23.5733 117.079 22.7893 117.079 21.872C117.079 21.072 117.26 20.3413 117.623 19.68C117.996 19.008 118.519 18.4747 119.191 18.08C119.863 17.6853 120.636 17.488 121.511 17.488C123.004 17.488 124.124 17.904 124.871 18.736C125.628 19.568 126.007 20.832 126.007 22.528V22.56ZM122.983 20.912C122.994 20.6453 122.94 20.4107 122.823 20.208C122.716 19.9947 122.556 19.8293 122.343 19.712C122.14 19.584 121.9 19.52 121.623 19.52C121.196 19.52 120.85 19.6373 120.583 19.872C120.327 20.1067 120.167 20.4533 120.103 20.912H122.983Z" fill="#08332C"/>
<defs>
<clipPath id="clip0_1169_5984">
<rect width="40" height="40" rx="16" fill="white"/>
</clipPath>
</defs>
</svg>
