<svg width="206" height="285" viewBox="0 0 206 285" fill="none" xmlns="http://www.w3.org/2000/svg">
<path d="M274.626 91.3498C277.691 99.2687 273.761 108.167 265.858 111.222C257.939 114.286 249.041 110.356 245.986 102.453C223.887 45.3992 159.499 16.9726 102.445 39.0718C45.3908 61.1709 16.9643 125.559 39.0634 182.613C61.1626 239.667 125.55 268.094 182.605 245.995C190.524 242.93 199.422 246.86 202.477 254.763C205.531 262.665 201.611 271.58 193.708 274.635C120.876 302.851 38.6394 266.549 10.4401 193.707C-17.7758 120.874 18.5253 38.6381 91.3676 10.4388C164.2 -17.7771 246.437 18.524 274.636 91.3664L274.626 91.3498Z" fill="url(#paint0_linear_911_433)"/>
<defs>
<linearGradient id="paint0_linear_911_433" x1="71.4126" y1="19.7671" x2="212.356" y2="263.843" gradientUnits="userSpaceOnUse">
<stop stop-color="#7AEBD9"/>
<stop offset="1" stop-color="#E8FAF7"/>
</linearGradient>
</defs>
</svg>
