<svg width="1018" height="516" viewBox="0 0 1018 516" fill="none" xmlns="http://www.w3.org/2000/svg">
<g opacity="0.2">
<path d="M-1 38.0939C51.2617 19.451 104.618 3.84159 159.798 1.44162C232.45 -1.70714 310.189 21.8894 354.694 79.4118C389.273 124.09 399.526 182.265 411.353 237.502C423.18 292.74 439.673 350.877 482.027 388.259C528.644 429.404 596.208 436.066 658.281 432.265C720.334 428.482 783.002 416.329 844.154 427.522C917.401 440.943 981.912 490.805 1017.39 555.969" stroke="#1E7B74" stroke-width="0.5" stroke-linecap="round" stroke-linejoin="round"/>
<path d="M-1 43.0283C49.9945 25.3261 102.256 11.6175 155.766 10.8879C226.402 9.94709 300.974 34.926 343.674 91.5652C378.848 138.201 388.64 198.738 403.404 254.897C418.476 311.556 442.188 367.504 488.114 401.756C536.439 437.775 602.064 442.402 663.388 437.564C724.693 432.726 786.996 421.263 847.264 433.397C915.922 447.202 976.325 494.645 1008.93 555.969" stroke="#1E7B74" stroke-width="0.5" stroke-linecap="round" stroke-linejoin="round"/>
<path d="M-1 47.9826C48.7081 31.2405 99.8947 19.3942 151.734 20.3542C220.354 21.6022 291.719 48.021 332.672 103.739C368.403 152.372 377.638 215.27 395.475 272.312C413.657 330.43 444.511 384.228 494.238 415.255C544.004 446.301 607.958 448.758 668.534 442.864C729.109 436.969 791.047 426.179 850.413 439.254C914.482 453.366 970.795 498.409 1000.57 555.969" stroke="#1E7B74" stroke-width="0.5" stroke-linecap="round" stroke-linejoin="round"/>
<path d="M-1 52.9545C47.441 37.1723 97.5523 27.2077 147.721 29.8188C214.306 33.2748 282.446 61.1336 321.69 115.93C357.958 166.559 366.752 231.8 387.545 289.745C408.934 349.303 446.623 401.104 500.363 428.79C551.357 455.055 613.872 455.151 673.679 448.201C733.505 441.25 795.079 431.074 853.542 445.148C913.061 459.471 965.285 502.152 992.299 556.007" stroke="#1E7B74" stroke-width="0.5" stroke-linecap="round" stroke-linejoin="round"/>
<path d="M-1 57.928C46.1738 43.125 95.1907 35.0227 143.689 39.2659C208.258 44.9298 273.115 74.2862 310.669 128.084C347.437 180.749 355.846 248.294 379.597 307.141C404.211 368.138 448.543 418.134 506.468 442.269C558.519 463.964 619.747 461.488 678.805 453.481C737.883 445.475 799.111 435.875 856.672 450.985C911.679 465.423 959.832 505.781 984.12 555.969" stroke="#1E7B74" stroke-width="0.5" stroke-linecap="round" stroke-linejoin="round"/>
<path d="M-1 62.8991C44.9066 49.0753 92.8292 42.8162 139.677 48.7105C202.229 56.5632 263.764 87.4364 299.687 140.236C336.935 194.974 345.018 264.765 371.686 324.534C399.545 386.952 450.405 435.393 512.612 455.764C565.604 473.121 625.661 467.841 683.97 458.779C742.299 449.716 803.181 440.616 859.821 456.84C910.335 471.316 954.456 509.351 976.094 555.968" stroke="#1E7B74" stroke-width="0.5" stroke-linecap="round" stroke-linejoin="round"/>
<path d="M-1 67.893C43.6394 55.0484 90.4676 50.6516 135.645 58.1588C196.162 68.2194 254.357 100.629 288.686 152.391C326.356 209.203 334.17 281.241 363.757 341.931C394.88 405.77 452.191 452.944 518.737 469.245C572.631 482.454 631.555 474.179 689.135 464.061C746.715 453.961 807.271 445.283 862.989 462.697C909.068 477.097 949.176 512.866 968.222 555.97" stroke="#1E7B74" stroke-width="0.5" stroke-linecap="round" stroke-linejoin="round"/>
<path d="M-1 72.9029C42.3722 61.0758 88.106 58.5031 131.613 67.6229C190.114 79.8916 244.91 113.856 277.665 164.582C315.738 223.506 323.418 297.693 355.808 359.363C390.329 424.546 453.957 470.779 524.843 482.779C579.658 492.052 637.43 480.571 694.261 469.397C751.092 458.242 811.36 449.909 866.118 468.59C907.82 482.817 943.954 516.321 960.466 555.988" stroke="#1E7B74" stroke-width="0.5" stroke-linecap="round" stroke-linejoin="round"/>
<path d="M-1 77.9144C41.1242 67.0858 85.7253 66.337 127.6 77.0696C184.086 91.527 235.445 127.085 266.683 176.736C305.102 237.81 312.551 314.167 347.898 376.758C385.644 443.362 455.8 488.866 530.986 496.277C586.781 501.768 643.343 486.927 699.426 474.696C755.508 462.485 815.546 454.383 869.267 474.447C906.668 488.405 938.866 519.662 952.939 555.988" stroke="#1E7B74" stroke-width="0.5" stroke-linecap="round" stroke-linejoin="round"/>
<path d="M-1 82.9645C39.8571 73.1726 83.3637 74.2286 123.568 86.5356C178.018 103.201 225.941 140.333 255.681 188.909C294.388 252.153 301.684 330.66 339.949 394.173C380.941 462.198 457.701 507.202 537.092 509.775C593.962 511.618 649.219 493.263 704.552 479.996C759.886 466.729 819.751 458.742 872.396 480.303C905.593 493.897 933.912 522.927 945.624 555.989" stroke="#1E7B74" stroke-width="0.5" stroke-linecap="round" stroke-linejoin="round"/>
</g>
</svg>
