<svg width="48" height="48" viewBox="0 0 48 48" fill="none" xmlns="http://www.w3.org/2000/svg">
<rect width="48" height="48" rx="24" fill="#E8FAF7"/>
<path d="M19.2666 24.0001H21.4L20.3333 21.6267L19.2666 24.0001ZM27.1733 20.6667H26.6666V26.0001H27.1733C28.1066 26.0001 28.8133 25.7734 29.2933 25.2934C29.88 24.7067 30.0133 23.9067 30.0133 23.3334C30.0133 21.6667 28.96 20.6667 27.1866 20.6667H27.1733ZM35.2933 14.2401C34.84 13.7467 34.2266 13.4401 33.56 13.3601C30.6266 13.0534 27.76 12.2267 25.1066 10.9201C24.76 10.7467 24.3866 10.6667 24.0133 10.6667C23.64 10.6667 23.2666 10.7601 22.92 10.9201C20.2933 12.2267 17.44 13.0534 14.52 13.3601C13.8533 13.4134 13.2266 13.7201 12.76 14.2134C12.2933 14.7067 12.0266 15.3467 12.0133 16.0267V22.6801C12.0133 31.6667 21.0133 37.3334 24.0133 37.3334C27.0133 37.3334 36.0133 31.6667 36.0133 22.6801V16.0267C36 15.3601 35.7466 14.7334 35.2933 14.2401ZM23.6266 27.2801C23.5333 27.3201 23.44 27.3334 23.3466 27.3334C23.0933 27.3334 22.8533 27.1867 22.7333 26.9467L22.0133 25.3334H18.68L17.96 26.9467C17.8133 27.2801 17.4133 27.4267 17.08 27.2801C16.7466 27.1334 16.6 26.7334 16.7466 26.4001L19.7466 19.7334C19.96 19.2534 20.7466 19.2534 20.96 19.7334L23.96 26.4001C24.1066 26.7334 23.96 27.1334 23.6266 27.2801ZM30.24 26.2534C29.52 26.9601 28.4933 27.3334 27.2533 27.3334H26.0133C25.64 27.3334 25.3466 27.0401 25.3466 26.6667V20.0001C25.3466 19.6267 25.64 19.3334 26.0133 19.3334H27.1866C29.68 19.3334 31.3466 20.9467 31.3466 23.3334C31.3466 24.5201 30.96 25.5334 30.24 26.2534Z" fill="#1ECCB0"/>
</svg>
