<svg width="48" height="48" viewBox="0 0 48 48" fill="none" xmlns="http://www.w3.org/2000/svg">
<rect width="48" height="48" rx="24" fill="#E8FAF7"/>
<path d="M19.0534 32.3866C18.9298 32.5112 18.832 32.6589 18.7657 32.8214C18.6993 32.9838 18.6657 33.1578 18.6667 33.3333C18.6657 33.5087 18.6993 33.6827 18.7657 33.8451C18.832 34.0076 18.9298 34.1553 19.0534 34.2799C19.1779 34.4035 19.3257 34.5013 19.4881 34.5676C19.6506 34.634 19.8245 34.6676 20 34.6666H24V31.9999H20C19.8245 31.9989 19.6506 32.0325 19.4881 32.0989C19.3257 32.1652 19.1779 32.263 19.0534 32.3866ZM34.6667 17.3333C35.6091 17.3452 36.5307 17.6125 37.3334 18.1066V15.9999C37.3334 15.2927 37.0524 14.6144 36.5523 14.1143C36.0522 13.6142 35.3739 13.3333 34.6667 13.3333H13.3334C12.6261 13.3333 11.9478 13.6142 11.4477 14.1143C10.9476 14.6144 10.6667 15.2927 10.6667 15.9999V27.9999C10.6667 28.7072 10.9476 29.3854 11.4477 29.8855C11.9478 30.3856 12.6261 30.6666 13.3334 30.6666H24V22.8799C23.9785 21.4391 24.5268 20.048 25.5255 19.0093C26.5243 17.9706 27.8928 17.3682 29.3334 17.3333H34.6667ZM36.6 20.8933C36.0934 20.3594 35.4016 20.0397 34.6667 19.9999H29.3334C28.5984 20.0397 27.9066 20.3594 27.4 20.8933C26.9053 21.4395 26.6424 22.1567 26.6667 22.8933V34.4399C26.6395 35.1769 26.9029 35.8951 27.4 36.4399C27.6475 36.7089 27.9457 36.9263 28.2775 37.0796C28.6093 37.2329 28.9681 37.3191 29.3334 37.3333H34.6667C35.0319 37.3191 35.3907 37.2329 35.7225 37.0796C36.0543 36.9263 36.3525 36.7089 36.6 36.4399C37.0972 35.8951 37.3605 35.1769 37.3334 34.4399V22.8799C37.3577 22.1434 37.0947 21.4262 36.6 20.8799V20.8933ZM32.9467 34.2266C32.8266 34.3598 32.6809 34.4675 32.5182 34.5431C32.3555 34.6187 32.1793 34.6607 32 34.6666C31.7341 34.6672 31.4741 34.5882 31.2534 34.4399C31.0915 34.3301 30.9558 34.1859 30.8559 34.0178C30.756 33.8496 30.6943 33.6615 30.6752 33.4668C30.6561 33.2721 30.6801 33.0756 30.7454 32.8912C30.8108 32.7069 30.9159 32.5391 31.0534 32.3999C31.2345 32.201 31.4715 32.0616 31.7334 31.9999C31.9934 31.9492 32.2626 31.977 32.5067 32.0799C32.7553 32.1742 32.9662 32.3475 33.1067 32.5733C33.2576 32.7977 33.3366 33.0628 33.3334 33.3333C33.3319 33.683 33.193 34.0182 32.9467 34.2666V34.2266Z" fill="#1ECCB0"/>
</svg>
