<svg width="48" height="48" viewBox="0 0 48 48" fill="none" xmlns="http://www.w3.org/2000/svg">
<rect width="48" height="48" rx="24" fill="#E8FAF7"/>
<path d="M36.52 29.4399L31.8533 27.4399C31.609 27.3369 31.3395 27.309 31.0792 27.3599C30.819 27.4108 30.5799 27.5382 30.3924 27.7257C30.2049 27.9132 30.0775 28.1523 30.0266 28.4125C29.9757 28.6728 30.0036 28.9423 30.1066 29.1866L32.1066 33.8533C32.2087 34.0942 32.3794 34.2999 32.5976 34.4445C32.8157 34.5891 33.0716 34.6664 33.3333 34.6666H33.6C33.9057 34.6042 34.1798 34.4367 34.3747 34.1931C34.5696 33.9494 34.6729 33.6452 34.6666 33.3333V31.9999H36C36.3071 31.9993 36.6046 31.8927 36.8422 31.6982C37.0798 31.5036 37.2429 31.233 37.3041 30.932C37.3652 30.631 37.3206 30.3182 37.1777 30.0463C37.0348 29.7745 36.8025 29.5603 36.52 29.4399ZM33.3333 13.3333H14.6666C13.6058 13.3333 12.5883 13.7547 11.8382 14.5048C11.0881 15.255 10.6666 16.2724 10.6666 17.3333V30.6666C10.6666 31.7274 11.0881 32.7449 11.8382 33.495C12.5883 34.2452 13.6058 34.6666 14.6666 34.6666H28C27.0371 33.3828 26.5696 31.7947 26.6834 30.194C26.7972 28.5933 27.4845 27.0873 28.6192 25.9525C29.754 24.8178 31.26 24.1305 32.8607 24.0167C34.4614 23.9029 36.0495 24.3704 37.3333 25.3333V17.3333C37.3333 16.2724 36.9119 15.255 36.1617 14.5048C35.4116 13.7547 34.3942 13.3333 33.3333 13.3333ZM14.6666 18.6666C14.4029 18.6666 14.1451 18.5884 13.9259 18.4419C13.7066 18.2954 13.5357 18.0871 13.4348 17.8435C13.3339 17.5999 13.3075 17.3318 13.3589 17.0731C13.4104 16.8145 13.5373 16.5769 13.7238 16.3904C13.9103 16.204 14.1479 16.077 14.4065 16.0255C14.6651 15.9741 14.9332 16.0005 15.1769 16.1014C15.4205 16.2023 15.6287 16.3732 15.7753 16.5925C15.9218 16.8118 16 17.0695 16 17.3333C16 17.6869 15.8595 18.026 15.6094 18.2761C15.3594 18.5261 15.0202 18.6666 14.6666 18.6666ZM18.6666 18.6666C18.4029 18.6666 18.1451 18.5884 17.9259 18.4419C17.7066 18.2954 17.5357 18.0871 17.4348 17.8435C17.3339 17.5999 17.3075 17.3318 17.3589 17.0731C17.4104 16.8145 17.5373 16.5769 17.7238 16.3904C17.9103 16.204 18.1479 16.077 18.4065 16.0255C18.6651 15.9741 18.9332 16.0005 19.1769 16.1014C19.4205 16.2023 19.6287 16.3732 19.7753 16.5925C19.9218 16.8118 20 17.0695 20 17.3333C20 17.6869 19.8595 18.026 19.6094 18.2761C19.3594 18.5261 19.0202 18.6666 18.6666 18.6666ZM22.6666 18.6666C22.4029 18.6666 22.1451 18.5884 21.9259 18.4419C21.7066 18.2954 21.5357 18.0871 21.4348 17.8435C21.3339 17.5999 21.3075 17.3318 21.3589 17.0731C21.4104 16.8145 21.5373 16.5769 21.7238 16.3904C21.9103 16.204 22.1479 16.077 22.4065 16.0255C22.6651 15.9741 22.9332 16.0005 23.1769 16.1014C23.4205 16.2023 23.6287 16.3732 23.7753 16.5925C23.9218 16.8118 24 17.0695 24 17.3333C24 17.6869 23.8595 18.026 23.6094 18.2761C23.3594 18.5261 23.0202 18.6666 22.6666 18.6666Z" fill="#1ECCB0"/>
</svg>
