<svg width="48" height="48" viewBox="0 0 48 48" fill="none" xmlns="http://www.w3.org/2000/svg">
<rect width="48" height="48" rx="24" fill="#E8FAF7"/>
<path d="M33.6801 17.6667C33.4268 17.5734 32.8401 17.6667 32.6001 17.8001C32.0801 18.0801 30.9735 18.7467 30.7868 19.3067C30.7335 19.4667 30.9068 19.9867 30.9068 19.9867L29.2935 20.2667C29.2935 20.2667 28.7468 20.0934 28.6268 19.9467C28.5201 19.8001 28.6268 19.3467 28.5068 19.2267C28.3868 19.1201 27.9335 19.0934 27.8535 19.2401C27.7068 19.5201 28.2135 20.2534 28.0135 20.4801C27.8268 20.6934 26.9068 20.5067 26.9068 20.5067C26.5468 20.5067 26.1868 20.4667 25.8401 20.3467L24.4401 19.8934C24.2268 19.8267 24.0135 19.7334 23.8135 19.6134C23.8135 19.6134 22.2668 19.1334 22.1735 18.6801C22.1068 18.3734 22.8001 17.8534 22.7201 17.5467C22.6135 17.1334 21.3201 16.5601 21.3201 16.5601C21.3201 16.5601 21.0001 15.7334 21.2001 15.6001C21.2935 15.5467 21.4668 15.8134 21.5735 15.8401C21.6935 15.8667 21.9468 15.6934 21.9735 15.5734C22.0401 15.3334 21.5068 14.6667 21.5068 14.6667L22.3735 13.8401C22.3735 13.8401 22.6401 13.3201 22.5601 13.1734C22.4801 13.0134 22.0535 12.9201 21.8668 12.9201C21.5468 12.9201 20.5868 13.1601 20.5868 13.1601L20.3468 12.9334C19.6535 12.2667 18.7335 11.9334 17.8135 12.0001C17.8135 12.0001 17.3201 12.4267 17.3468 12.6134C17.3868 12.9467 18.3335 13.1067 18.3868 13.4267C18.4001 13.5201 18.1335 13.7067 18.1335 13.7067C18.1335 13.7067 17.9201 13.7067 17.8801 13.7601C17.6801 14.0001 17.6535 14.7867 17.8668 15.0267C18.0401 15.2401 18.7335 15.3467 18.7868 15.6134C19.0001 16.7067 16.2001 19.2667 16.2001 19.2667C16.2001 19.2667 15.3601 19.0667 15.1068 19.1601C14.8268 19.2667 14.3735 19.8401 14.4135 20.1334C14.4935 20.6667 15.6401 21.4801 15.4801 21.9867C15.4135 22.2001 14.8801 22.3734 14.6535 22.3867C14.4268 22.3867 13.9735 22.1867 13.7335 22.2267C13.5868 22.2534 13.2935 22.4934 13.2935 22.6534C13.2935 22.9334 14.0401 23.4667 14.0401 23.4667C14.0401 23.4667 13.9201 24.0134 13.9735 24.1867C14.0935 24.6001 14.8268 25.3201 15.2535 25.3334L15.2801 25.3067C15.2801 25.3067 16.2268 24.7601 16.5068 24.9201C16.6535 25.0001 16.6668 25.6001 16.6668 25.6001V27.0134C16.6935 27.4001 16.7468 27.7867 16.8668 28.1601L18.3468 32.7334L18.7468 33.5467L19.2935 35.4267C19.2935 35.4267 19.5868 35.8667 19.7335 35.9467C19.9068 36.0401 20.3601 36.0134 20.5068 35.8801C20.6135 35.8001 20.6535 35.3734 20.6535 35.3734L21.9601 33.8134V33.6667L21.9335 32.9467L21.9601 32.8401L22.3201 31.5867L22.2801 31.5601V31.5201L22.3201 31.5734V31.5067L22.1201 30.2534C22.1201 30.2534 22.2001 29.8134 22.2801 29.6934C22.8001 28.9334 25.2135 27.4801 25.2135 27.4801L25.7335 26.7601C25.7335 26.7601 25.9335 26.3201 26.0535 26.2267C26.2401 26.0934 26.7601 26.1201 26.9468 25.9867C27.2668 25.7467 27.4668 24.9067 27.7201 24.5867C27.8135 24.4667 28.0668 24.2801 28.2135 24.2801C28.4001 24.2801 28.8001 24.6134 28.9335 24.4801C29.4801 23.9734 28.3068 21.5734 28.3068 21.5734C28.3068 21.5734 28.0668 20.6667 28.2801 20.4934C28.4535 20.3467 29.1601 20.6667 29.1601 20.6667L29.3068 21.2934L29.7335 21.5201C29.7335 21.5201 31.0135 21.2401 31.2268 21.5467C31.2935 21.6401 31.0801 21.9467 31.0801 21.9467L31.2135 22.6401C31.2135 22.6401 31.2135 23.8534 31.5335 23.9067C31.7868 23.9467 32.0668 23.0534 32.0668 23.0534L31.9601 22.2934L32.4801 22.3467C32.4801 22.3467 32.7601 21.3467 32.8668 21.0267C32.9468 20.7601 33.2268 19.9734 33.2268 19.9734L34.2668 19.2801C34.2668 19.2801 34.6535 18.8667 34.6535 18.6801C34.6535 18.3201 34.0135 17.7334 33.6668 17.6001L33.6801 17.6667Z" fill="#1ECCB0"/>
</svg>
