<svg width="48" height="48" viewBox="0 0 48 48" fill="none" xmlns="http://www.w3.org/2000/svg">
<rect width="48" height="48" rx="24" fill="#E8FAF7"/>
<path d="M32 18.6667H25.3333V16.96C25.7364 16.7273 26.0715 16.3932 26.3054 15.9909C26.5393 15.5886 26.6639 15.132 26.6667 14.6667C26.6667 13.9594 26.3857 13.2811 25.8856 12.781C25.3855 12.281 24.7072 12 24 12C23.2928 12 22.6145 12.281 22.1144 12.781C21.6143 13.2811 21.3333 13.9594 21.3333 14.6667C21.3361 15.132 21.4607 15.5886 21.6946 15.9909C21.9285 16.3932 22.2636 16.7273 22.6667 16.96V18.6667H16C14.9391 18.6667 13.9217 19.0881 13.1716 19.8382C12.4214 20.5884 12 21.6058 12 22.6667V32C12 33.0609 12.4214 34.0783 13.1716 34.8284C13.9217 35.5786 14.9391 36 16 36H32C33.0609 36 34.0783 35.5786 34.8284 34.8284C35.5786 34.0783 36 33.0609 36 32V22.6667C36 21.6058 35.5786 20.5884 34.8284 19.8382C34.0783 19.0881 33.0609 18.6667 32 18.6667ZM18 22.6667C18.3956 22.6667 18.7822 22.784 19.1111 23.0037C19.44 23.2235 19.6964 23.5358 19.8478 23.9013C19.9991 24.2668 20.0387 24.6689 19.9616 25.0568C19.8844 25.4448 19.6939 25.8012 19.4142 26.0809C19.1345 26.3606 18.7781 26.5511 18.3902 26.6282C18.0022 26.7054 17.6001 26.6658 17.2346 26.5144C16.8692 26.3631 16.5568 26.1067 16.3371 25.7778C16.1173 25.4489 16 25.0622 16 24.6667C16 24.1362 16.2107 23.6275 16.5858 23.2525C16.9609 22.8774 17.4696 22.6667 18 22.6667ZM30.6667 32H17.3333C16.9797 32 16.6406 31.8595 16.3905 31.6095C16.1405 31.3594 16 31.0203 16 30.6667C16 30.313 16.1405 29.9739 16.3905 29.7239C16.6406 29.4738 16.9797 29.3333 17.3333 29.3333H30.6667C31.0203 29.3333 31.3594 29.4738 31.6095 29.7239C31.8595 29.9739 32 30.313 32 30.6667C32 31.0203 31.8595 31.3594 31.6095 31.6095C31.3594 31.8595 31.0203 32 30.6667 32ZM30 26.6667C29.6044 26.6667 29.2178 26.5494 28.8889 26.3296C28.56 26.1098 28.3036 25.7975 28.1522 25.432C28.0009 25.0666 27.9613 24.6644 28.0384 24.2765C28.1156 23.8885 28.3061 23.5322 28.5858 23.2525C28.8655 22.9727 29.2219 22.7823 29.6098 22.7051C29.9978 22.6279 30.3999 22.6675 30.7654 22.8189C31.1308 22.9703 31.4432 23.2266 31.6629 23.5555C31.8827 23.8844 32 24.2711 32 24.6667C32 25.1971 31.7893 25.7058 31.4142 26.0809C31.0391 26.456 30.5304 26.6667 30 26.6667Z" fill="#1ECCB0"/>
</svg>
