<svg width="48" height="48" viewBox="0 0 48 48" fill="none" xmlns="http://www.w3.org/2000/svg">
<rect width="48" height="48" rx="24" fill="#E8FAF7"/>
<path d="M24.0134 22.6667C22.5467 22.6667 21.3467 23.8667 21.3467 25.3333C21.3467 26.8 22.5467 28 24.0134 28C25.48 28 26.68 26.8 26.68 25.3333C26.68 23.8667 25.48 22.6667 24.0134 22.6667ZM36.16 13.1733C35.4134 12.4267 34.3867 12 33.3334 12H14.6667C13.6 12 12.5867 12.4267 11.84 13.1733C11.0934 13.92 10.6667 14.9467 10.6667 16V32C10.6667 33.0667 11.0934 34.08 11.84 34.8267C12.5867 35.5733 13.6134 36 14.6667 36H33.3334C34.4 36 35.4134 35.5733 36.16 34.8267C36.9067 34.08 37.3334 33.0533 37.3334 32V16C37.3334 14.9333 36.9067 13.92 36.16 13.1733ZM21.72 15.0533C21.9734 14.8 22.3067 14.6667 22.6667 14.6667C22.9334 14.6667 23.1867 14.7467 23.4134 14.8933C23.64 15.04 23.8 15.2533 23.9067 15.4933C24.0134 15.7333 24.04 16 23.9867 16.2667C23.9334 16.5333 23.8134 16.76 23.6267 16.9467C23.44 17.1333 23.2 17.2667 22.9467 17.3067C22.6934 17.36 22.4134 17.3333 22.1734 17.2267C21.9334 17.12 21.72 16.96 21.5734 16.7333C21.4267 16.52 21.3467 16.2533 21.3467 15.9867C21.3467 15.6267 21.4934 15.2933 21.7334 15.04L21.72 15.0533ZM15.9734 16.2533C15.92 16.5067 15.8 16.7467 15.6134 16.9333C15.4267 17.12 15.1867 17.2533 14.9334 17.2933C14.68 17.3467 14.4 17.32 14.16 17.2133C13.92 17.1067 13.7067 16.9467 13.56 16.72C13.4134 16.5067 13.3334 16.24 13.3334 15.9733C13.3334 15.6133 13.48 15.28 13.72 15.0267C13.9734 14.7733 14.3067 14.64 14.6667 14.64C14.9334 14.64 15.1867 14.72 15.4134 14.8667C15.6267 15.0133 15.8 15.2267 15.9067 15.4667C16.0134 15.7067 16.04 15.9733 15.9867 16.24L15.9734 16.2533ZM18.16 17.2267C17.92 17.12 17.7067 16.96 17.56 16.7333C17.4134 16.52 17.3334 16.2533 17.3334 15.9867C17.3334 15.6267 17.48 15.2933 17.72 15.04C17.9734 14.7867 18.3067 14.6533 18.6667 14.6533C18.9334 14.6533 19.1867 14.7333 19.4134 14.88C19.64 15.0267 19.8 15.24 19.9067 15.48C20.0134 15.72 20.04 15.9867 19.9867 16.2533C19.9334 16.52 19.8134 16.7467 19.6267 16.9333C19.44 17.12 19.2 17.2533 18.9467 17.2933C18.6934 17.3467 18.4134 17.32 18.1734 17.2133L18.16 17.2267ZM31.6267 32.9467C31.36 33.2133 31.0267 33.3333 30.68 33.3333C30.3334 33.3333 30 33.2 29.7334 32.9467L26.7067 29.92C25.92 30.3867 25 30.68 24.0134 30.68C21.0667 30.68 18.68 28.2933 18.68 25.3467C18.68 22.4 21.0667 20.0133 24.0134 20.0133C26.96 20.0133 29.3467 22.4 29.3467 25.3467C29.3467 26.3333 29.0534 27.24 28.5867 28.04L31.6134 31.0667C32.1334 31.5867 32.1334 32.4267 31.6134 32.9467H31.6267Z" fill="#1ECCB0"/>
</svg>
